<svg width="184" height="30" viewBox="0 0 184 30" fill="none" xmlns="http://www.w3.org/2000/svg">
<path d="M0.559372 24H6.87755V17.0909H10.3776C15.6844 17.0909 19.2412 13.9659 19.2412 8.95455C19.2412 4 15.7753 0.727272 10.6048 0.727272H0.559372V24ZM6.87755 12.1818V5.77273H9.10483C11.3207 5.77273 12.6503 6.95454 12.6503 8.95455C12.6503 10.9432 11.3207 12.1818 9.10483 12.1818H6.87755ZM28.9989 24.3182C33.8398 24.3182 36.9535 22 37.5444 18.3636H31.8171C31.4535 19.3523 30.4194 19.9091 29.1353 19.9091C27.2716 19.9091 26.1807 18.6818 26.1807 17V16.7273H37.5444V15.2727C37.5444 9.71591 34.1353 6.31818 28.8626 6.31818C23.4535 6.31818 19.9989 9.90909 19.9989 15.3182C19.9989 20.9659 23.408 24.3182 28.9989 24.3182ZM26.1807 13.2727C26.2148 11.7614 27.4648 10.7273 28.9989 10.7273C30.5557 10.7273 31.7376 11.7727 31.7716 13.2727H26.1807ZM52.1913 6.54545H39.464V24H45.5095V11.2273H52.1913V6.54545ZM59.7644 16V6.54545H53.8553V24H59.7644L64.628 14.5V24H70.5371V6.54545H64.628L59.7644 16ZM81.4994 24.3182C86.6698 24.3182 89.8403 21.3523 89.9085 16.7273H84.0903C83.9539 18.5568 82.9653 19.5455 81.5903 19.5455C79.9426 19.5455 78.863 18.1364 78.863 15.2727C78.863 12.4091 79.9426 11 81.5903 11C82.9766 11 83.9198 11.9886 84.0903 13.8182H89.9085C89.8744 9.27273 86.6357 6.31818 81.4994 6.31818C75.8176 6.31818 72.4539 9.95455 72.4539 15.3182C72.4539 20.6818 75.8176 24.3182 81.4994 24.3182ZM90.8054 11.2273H96.2599V24H102.169V11.2273H107.714V6.54545H90.8054V11.2273ZM113.799 24.2727C116.072 24.2727 117.788 23.5 118.844 21.5455H118.981V24H124.844V12.0455C124.844 8.81818 121.788 6.31818 116.799 6.31818C111.583 6.31818 109.015 9.04545 108.799 12.2273H114.572C114.719 11.1477 115.515 10.6364 116.708 10.6364C117.799 10.6364 118.572 11.1364 118.572 12.0455V12.0909C118.572 13.1023 117.458 13.4205 114.526 13.6364C110.924 13.8977 108.117 15.3523 108.117 19.1818C108.117 22.6591 110.458 24.2727 113.799 24.2727ZM115.844 20.3182C114.776 20.3182 114.026 19.7955 114.026 18.8182C114.026 17.9205 114.663 17.2273 116.117 17C117.117 16.8409 117.958 16.6364 118.617 16.3636V17.8182C118.617 19.4091 117.265 20.3182 115.844 20.3182ZM143.474 6.54545H137.656V19.3182H133.111V6.54545H127.202V24H140.429V29.5909H146.474V20.0909H143.474V6.54545ZM153.971 16V6.54545H148.062V24H153.971L158.834 14.5V24H164.743V6.54545H158.834L153.971 16ZM177.342 24H183.16V6.54545H174.978C169.944 6.54545 166.762 9.09091 166.797 12.6364C166.774 14.625 167.967 16.2727 170.058 17.25L166.615 24H172.387L175.331 18.2273H177.342V24ZM177.342 14.4545H175.115C173.444 14.4545 172.672 13.6364 172.706 12.8636C172.672 12.1364 173.399 11.2273 174.978 11.2273H177.342V14.4545Z" fill="url(#paint0_linear_13_272)"/>
<defs>
<linearGradient id="paint0_linear_13_272" x1="184" y1="12.5" x2="-1" y2="12.5" gradientUnits="userSpaceOnUse">
<stop stop-color="#1A73E9"/>
<stop offset="1" stop-color="#6C92F4"/>
</linearGradient>
</defs>
</svg>
