<svg width="79" height="30" viewBox="0 0 79 30" fill="none" xmlns="http://www.w3.org/2000/svg">
<path d="M0.608124 24H11.5627C16.6195 24 19.7445 21.2386 19.7445 17.4091C19.7445 14.125 17.324 11.9773 14.3354 11.8636V11.6364C17.0286 11.1023 18.8354 9.11364 18.8354 6.54545C18.8354 3 16.0172 0.727272 10.699 0.727272H0.608124V24ZM6.92631 18.9545V14.0455H9.97176C11.8922 14.0455 13.0627 14.9545 13.0627 16.5909C13.0627 18.1477 12.0059 18.9545 9.88085 18.9545H6.92631ZM6.92631 10.1364V5.68182H9.60812C11.1763 5.68182 12.3354 6.47727 12.3354 7.90909C12.3354 9.34091 11.1763 10.1364 9.51721 10.1364H6.92631ZM26.8431 6.54545H20.5704L25.2068 15.2727L20.2522 24H26.5249L29.3886 18.4545L32.3431 24H38.5249L33.6159 15.2727L38.2977 6.54545H32.0704L29.3886 11.9545L26.8431 6.54545ZM47.7031 24.3182C53.3849 24.3182 56.7486 20.6818 56.7486 15.3182C56.7486 9.95455 53.3849 6.31818 47.7031 6.31818C42.0213 6.31818 38.6577 9.95455 38.6577 15.3182C38.6577 20.6818 42.0213 24.3182 47.7031 24.3182ZM47.7486 19.6818C46.0668 19.6818 45.0668 18.0114 45.0668 15.2727C45.0668 12.5341 46.0668 10.8636 47.7486 10.8636C49.3395 10.8636 50.3395 12.5341 50.3395 15.2727C50.3395 18.0114 49.3395 19.6818 47.7486 19.6818ZM57.6086 29.1818H63.6995V24H72.8813V29.1818H78.7904V19.2727H76.0631V6.54545H61.154L60.7904 11.4545C60.6086 13.9091 60.4722 18.6364 58.8813 19.2727H57.6086V29.1818ZM64.8813 19.2727C65.7904 17.6364 66.154 15.2273 66.3359 11.4545V11.0909H70.2449V19.2727H64.8813Z" fill="url(#paint0_linear_13_273)"/>
<defs>
<linearGradient id="paint0_linear_13_273" x1="79" y1="12.5" x2="-1" y2="12.5" gradientUnits="userSpaceOnUse">
<stop stop-color="#1A73E9"/>
<stop offset="1" stop-color="#6C92F4"/>
</linearGradient>
</defs>
</svg>
